<?xml version="1.0" standalone="no"?>
<!DOCTYPE svg PUBLIC "-//W3C//DTD SVG 20010904//EN"
 "http://www.w3.org/TR/2001/REC-SVG-20010904/DTD/svg10.dtd">
<svg version="1.0" xmlns="http://www.w3.org/2000/svg"
 width="1024.000000pt" height="1024.000000pt" viewBox="0 0 1024.000000 1024.000000"
 preserveAspectRatio="xMidYMid meet">

<g transform="translate(0.000000,1024.000000) scale(0.100000,-0.100000)"
fill="#000000" stroke="none">
<path d="M4875 9779 c-996 -43 -1957 -422 -2755 -1084 -134 -111 -413 -388
-534 -529 -866 -1013 -1252 -2277 -1100 -3606 66 -577 266 -1192 558 -1712
226 -403 485 -738 827 -1073 929 -908 2191 -1384 3488 -1315 1191 63 2265 550
3101 1406 358 367 617 734 847 1198 486 986 607 2107 343 3182 -77 311 -176
584 -324 889 -183 377 -383 688 -645 1000 -114 137 -440 459 -583 577 -791
651 -1739 1021 -2743 1068 -217 10 -229 10 -480 -1z m535 -339 c597 -45 1139
-194 1655 -455 648 -328 1216 -825 1629 -1424 682 -990 915 -2223 645 -3411
-55 -239 -171 -600 -194 -600 -6 0 -71 30 -145 68 l-135 67 -55 122 c-31 67
-58 124 -61 128 -3 3 -81 -13 -172 -35 l-165 -41 -144 72 c-184 92 -208 109
-359 255 -133 128 -166 148 -232 137 -26 -4 -40 2 -80 34 -40 32 -47 42 -41
63 3 14 14 82 24 153 72 484 35 1103 -96 1638 l-45 186 48 98 c88 179 221 315
393 404 100 51 176 75 354 110 221 44 287 85 317 195 25 90 -12 262 -91 421
-108 219 -244 303 -401 250 -91 -31 -134 -82 -244 -285 -37 -69 -89 -155 -117
-192 -74 -101 -185 -199 -270 -240 -88 -43 -125 -51 -201 -42 l-58 7 -74 147
c-300 592 -719 1025 -1192 1234 -261 115 -510 163 -797 153 -683 -23 -1281
-414 -1706 -1116 -80 -134 -176 -318 -226 -434 -26 -62 -32 -68 -69 -78 -64
-18 -152 -6 -220 29 -158 80 -276 210 -421 461 -92 159 -171 221 -290 229 -86
6 -149 -23 -219 -101 -122 -134 -216 -423 -186 -569 30 -142 85 -173 406 -223
327 -52 561 -217 699 -492 l26 -52 -25 -104 c-35 -143 -80 -420 -102 -617 -22
-206 -25 -727 -5 -895 13 -109 38 -266 47 -295 3 -10 -12 -29 -43 -53 -41 -31
-54 -35 -84 -31 -60 10 -112 -22 -234 -144 -125 -124 -192 -172 -376 -263
l-127 -63 -161 38 c-89 21 -167 36 -173 33 -7 -2 -35 -60 -62 -127 l-50 -122
-187 -94 c-103 -52 -192 -94 -197 -94 -11 0 -66 144 -125 328 -276 860 -272
1810 12 2677 369 1125 1252 2098 2346 2586 499 222 956 333 1536 372 111 8
397 6 520 -3z m85 -909 c642 -138 1164 -600 1540 -1366 261 -532 411 -1092
456 -1700 15 -206 6 -668 -16 -825 -65 -468 -193 -725 -558 -1120 -182 -196
-533 -513 -699 -632 -207 -148 -467 -243 -763 -279 -144 -17 -437 -14 -570 6
-287 43 -509 125 -717 264 -225 152 -676 561 -860 781 -207 247 -330 494 -387
776 -85 419 -77 1025 20 1564 118 656 376 1285 713 1738 103 139 363 398 483
482 247 174 501 279 778 324 136 22 449 15 580 -13z m2730 -730 c90 -41 203
-218 245 -385 39 -153 21 -233 -60 -273 -70 -36 -150 -31 -287 16 l-113 38
-93 -66 c-206 -148 -307 -229 -403 -325 -55 -56 -112 -116 -125 -135 l-25 -35
-38 105 c-21 57 -54 141 -72 187 -19 45 -34 84 -34 86 0 2 30 5 68 8 153 11
366 154 502 338 26 36 79 128 116 205 49 100 82 153 114 185 67 68 133 84 205
51z m-6022 -133 c66 -20 129 -89 198 -218 114 -211 206 -320 354 -415 112 -73
197 -105 279 -105 l66 0 -12 -27 c-6 -16 -36 -103 -68 -195 l-56 -167 -56 68
c-30 37 -93 97 -139 134 -101 82 -367 272 -418 300 l-36 20 -100 -38 c-124
-47 -247 -58 -304 -28 -61 32 -76 63 -75 156 1 101 23 185 78 302 49 104 113
180 171 206 48 22 65 23 118 7z m850 -3860 c29 -46 80 -117 113 -158 33 -41
75 -109 93 -150 57 -131 215 -431 286 -545 239 -382 506 -669 790 -850 33 -21
107 -62 165 -91 58 -30 100 -54 95 -54 -26 0 -260 62 -353 95 -366 128 -671
320 -927 587 -200 207 -341 427 -449 698 l-45 115 34 320 c19 176 35 325 35
330 1 6 25 -41 55 -102 29 -62 78 -150 108 -195z m4652 125 l106 -118 -6 -50
c-20 -157 -82 -380 -156 -568 -194 -488 -569 -926 -1067 -1243 -125 -81 -403
-224 -569 -294 -57 -24 -103 -47 -103 -52 0 -5 52 -162 116 -349 65 -187 114
-342 111 -345 -8 -8 -162 -40 -312 -64 -493 -81 -970 -77 -1480 11 -66 11
-121 22 -123 24 -3 2 39 134 93 292 53 158 107 321 120 361 l23 73 -21 9 c-12
5 -80 32 -152 60 -400 159 -720 364 -996 640 -217 217 -364 419 -484 665 -107
220 -176 436 -224 703 l-20 107 24 35 c14 19 63 76 110 125 84 88 86 89 81 55
-3 -19 -17 -134 -30 -256 l-25 -221 39 -104 c118 -323 253 -553 452 -776 354
-396 874 -676 1423 -767 196 -33 298 -40 545 -40 276 0 407 13 620 60 736 164
1374 644 1694 1274 94 186 155 346 149 395 -2 22 -13 121 -24 220 -11 99 -22
197 -25 218 -3 20 -3 37 -1 37 3 0 53 -53 112 -117z m1225 -462 c74 -34 141
-68 148 -74 10 -10 -6 -49 -81 -197 -117 -230 -174 -329 -181 -310 -2 8 -7 51
-11 95 -8 100 -48 334 -80 472 -14 58 -25 107 -25 109 0 6 82 -28 230 -95z
m-7270 70 c0 -5 -11 -56 -25 -114 -41 -175 -74 -388 -87 -561 -6 -91 -15 -163
-20 -160 -28 17 -348 585 -348 617 0 4 24 19 53 33 81 42 411 194 420 194 4 0
7 -4 7 -9z"/>
<path d="M5492 7700 c-101 -27 -224 -56 -274 -64 -104 -18 -388 -21 -507 -6
-41 6 -76 8 -78 6 -7 -7 120 -26 249 -38 145 -14 306 -2 450 31 80 19 346 105
356 116 9 9 -7 5 -196 -45z"/>
<path d="M6008 7714 c-94 -20 -204 -69 -367 -164 -258 -150 -381 -187 -581
-177 -129 7 -242 32 -460 102 -179 57 -292 85 -345 84 -31 0 -21 -4 46 -18 47
-10 176 -48 287 -85 263 -87 364 -108 517 -108 196 -1 289 30 557 183 218 125
310 161 468 184 l85 13 -70 0 c-38 0 -100 -6 -137 -14z"/>
<path d="M6195 7558 c-33 -23 -205 -144 -383 -271 l-322 -229 -21 -72 c-11
-39 -23 -77 -25 -85 -3 -11 -11 -8 -30 10 -34 31 -62 87 -70 138 -10 64 -27
50 -19 -15 8 -70 28 -118 70 -170 l34 -41 -16 -91 -15 -91 32 -56 c18 -31 58
-89 90 -128 56 -70 180 -197 180 -185 0 3 -6 21 -14 40 -25 59 -55 190 -67
291 -14 125 -4 169 59 239 42 46 228 183 474 351 118 80 164 92 323 84 113 -5
214 -30 332 -83 29 -12 53 -19 53 -15 0 17 -104 154 -157 207 -93 93 -225 167
-343 193 -100 22 -102 21 -165 -21z"/>
<path d="M3820 7339 c-143 -42 -266 -125 -357 -241 -52 -67 -117 -168 -111
-174 2 -2 45 14 96 36 145 63 238 84 372 84 l115 1 131 -62 c452 -213 520
-256 545 -344 19 -71 0 -285 -37 -413 -16 -59 165 175 225 289 36 71 38 95 10
187 l-20 69 35 40 c46 54 66 117 65 198 -1 36 -4 55 -6 41 -16 -97 -79 -226
-105 -218 -5 2 -22 33 -37 68 l-27 64 -405 198 c-222 109 -408 197 -414 197
-5 0 -39 -9 -75 -20z"/>
<path d="M6085 6921 c-124 -36 -222 -111 -297 -225 -33 -52 -85 -183 -75 -193
2 -1 21 30 43 70 50 93 167 212 246 250 226 108 471 64 647 -118 39 -40 71
-70 71 -66 0 23 -68 116 -117 162 -102 94 -225 140 -373 138 -49 0 -110 -8
-145 -18z"/>
<path d="M3943 6879 c-156 -26 -309 -139 -378 -279 -15 -30 -8 -26 46 31 110
114 216 171 350 187 225 28 420 -70 544 -272 22 -36 43 -65 47 -66 4 0 -1 24
-13 53 -72 186 -218 309 -408 343 -85 15 -113 15 -188 3z"/>
<path d="M6153 6749 c-114 -19 -257 -100 -336 -190 -55 -63 -116 -174 -102
-188 29 -27 314 -39 496 -20 162 16 503 90 549 119 19 12 -41 88 -118 153
-134 112 -305 157 -489 126z m297 -99 c36 -12 79 -29 95 -37 50 -25 166 -116
158 -124 -8 -7 -280 -69 -302 -69 -6 0 -11 16 -11 35 0 68 -53 139 -119 160
-44 14 -111 6 -152 -17 -58 -33 -84 -79 -84 -154 l0 -62 -50 -6 c-65 -8 -170
-7 -218 2 l-38 7 73 76 c107 112 225 182 353 209 66 15 223 4 295 -20z m-262
-122 c7 -7 12 -21 12 -33 0 -12 -5 -26 -12 -33 -7 -7 -21 -12 -33 -12 -12 0
-26 5 -33 12 -7 7 -12 21 -12 33 0 12 5 26 12 33 7 7 21 12 33 12 12 0 26 -5
33 -12z"/>
<path d="M3861 6685 c-83 -24 -186 -83 -246 -142 -53 -52 -112 -130 -104 -137
8 -7 289 -66 399 -83 201 -31 632 -20 655 17 8 12 -66 127 -116 180 -61 63
-151 122 -232 150 -82 29 -275 37 -356 15z m349 -94 c93 -32 174 -84 258 -165
39 -38 72 -72 72 -76 0 -10 -212 -21 -263 -14 l-42 6 -1 57 c0 102 -57 172
-150 187 -106 16 -203 -69 -204 -178 0 -35 -2 -37 -27 -33 -16 3 -71 12 -123
21 -181 30 -163 24 -143 47 55 61 192 139 288 163 79 21 256 12 335 -15z
m-161 -113 c14 -24 14 -28 -3 -47 -23 -25 -49 -27 -70 -5 -21 20 -20 48 0 69
23 22 56 15 73 -17z"/>
<path d="M5003 6635 c-47 -13 -133 -51 -133 -58 0 -2 42 8 93 21 78 20 108 23
202 19 61 -3 131 -12 158 -20 26 -8 47 -13 47 -10 0 2 -26 16 -57 31 -49 22
-74 27 -158 29 -65 2 -118 -2 -152 -12z"/>
<path d="M6835 6471 c-14 -6 -2 -10 43 -15 34 -4 76 -12 92 -18 44 -15 48 -3
9 21 -35 21 -105 27 -144 12z"/>
<path d="M3313 6390 c-51 -31 -39 -41 24 -19 31 10 71 19 90 19 18 0 33 5 33
10 0 19 -113 11 -147 -10z"/>
<path d="M6666 6295 c-128 -70 -221 -97 -362 -103 -143 -5 -230 9 -397 68 -61
22 -113 38 -114 36 -10 -10 92 -83 162 -116 119 -56 210 -73 363 -68 115 4
137 8 232 42 204 73 256 88 350 100 l95 13 -58 8 c-55 7 -113 4 -212 -12 l-40
-6 33 37 c28 32 38 47 30 45 -2 0 -39 -20 -82 -44z"/>
<path d="M3530 6276 c0 -3 16 -24 36 -46 l36 -39 -64 6 c-62 5 -190 -10 -217
-26 -7 -5 18 -6 57 -3 90 6 175 -9 330 -61 126 -41 128 -41 272 -41 137 0 150
2 239 33 109 37 191 83 241 137 19 20 28 34 20 31 -8 -3 -53 -21 -100 -41
-151 -62 -239 -80 -385 -80 -173 0 -233 17 -457 132 -5 2 -8 1 -8 -2z"/>
<path d="M4876 6204 c-188 -41 -241 -115 -240 -334 0 -103 6 -148 29 -202 6
-14 -6 -12 -61 14 -55 25 -83 31 -138 32 -67 1 -69 0 -101 -37 -30 -34 -34
-36 -49 -22 -24 24 -39 94 -32 148 21 153 109 254 226 258 23 0 23 1 5 9 -28
12 -83 12 -130 -1 -27 -7 -57 -29 -91 -63 -65 -67 -95 -141 -101 -251 -5 -73
-3 -84 24 -135 40 -77 83 -103 238 -145 161 -44 361 -111 480 -161 143 -59
265 -59 405 3 96 42 295 112 451 157 182 53 221 77 256 153 23 49 25 64 21
141 -7 134 -73 254 -162 296 -38 18 -152 22 -176 6 -11 -7 -3 -10 29 -10 126
0 214 -113 215 -275 1 -63 -3 -87 -18 -109 l-18 -29 -25 31 c-32 42 -87 57
-157 42 -64 -13 -163 -59 -225 -104 -107 -78 -210 -108 -366 -109 -114 0 -200
19 -292 64 -112 54 -169 151 -180 304 -7 99 10 185 43 225 50 58 227 99 444
101 75 1 104 4 85 9 -54 14 -315 9 -389 -6z"/>
<path d="M5528 6126 c49 -44 79 -91 98 -149 l13 -42 0 35 c1 61 -17 106 -59
144 -22 20 -44 36 -49 36 -5 0 -17 3 -27 7 -10 4 1 -10 24 -31z"/>
<path d="M6187 5609 c29 -50 115 -125 182 -159 84 -42 181 -66 326 -80 168
-16 246 -40 298 -93 54 -53 70 -103 77 -242 l5 -110 18 55 c27 81 34 215 13
276 -21 65 -67 119 -126 149 -63 32 -112 42 -262 56 -238 21 -373 60 -490 144
-26 19 -51 35 -54 35 -3 0 3 -14 13 -31z"/>
<path d="M4037 5569 c-116 -94 -190 -123 -437 -168 -198 -37 -261 -61 -320
-120 -78 -78 -98 -182 -64 -334 29 -129 39 -130 39 -4 0 132 15 191 61 245 46
54 96 75 266 111 229 49 339 95 423 176 39 38 102 132 94 139 -2 2 -30 -18
-62 -45z"/>
<path d="M5475 5320 c3 -14 17 -67 30 -119 14 -51 25 -108 26 -125 0 -17 4
-40 9 -51 6 -14 9 0 9 47 1 68 -32 195 -65 248 l-15 25 6 -25z"/>
<path d="M4827 5303 c-45 -86 -78 -293 -47 -293 6 0 10 21 10 48 1 26 14 97
30 157 15 61 27 112 25 113 -2 2 -10 -9 -18 -25z"/>
<path d="M6640 5263 c0 -5 17 -15 37 -22 35 -13 36 -14 17 -28 -38 -29 -211
-111 -294 -141 -180 -63 -341 -89 -895 -147 l-350 -37 -374 27 c-516 36 -665
55 -866 111 -103 29 -305 112 -305 125 0 5 17 16 38 26 36 16 36 17 10 20 -72
10 -177 -50 -208 -120 -10 -23 -17 -43 -15 -46 3 -2 23 13 45 33 70 63 77 58
204 -154 118 -195 205 -308 335 -432 214 -203 415 -296 748 -344 166 -24 543
-25 713 -1 379 53 604 160 831 394 124 128 199 229 322 438 96 163 132 215
148 215 4 0 28 -16 53 -35 25 -19 46 -30 46 -24 0 32 -59 103 -106 128 -30 15
-134 26 -134 14z m-220 -262 c0 -5 -14 -14 -31 -21 -17 -7 -42 -31 -56 -52
-24 -35 -27 -37 -43 -23 -9 8 -26 15 -37 15 -23 0 -94 -49 -116 -80 l-14 -21
-18 27 c-15 24 -22 26 -61 21 -28 -3 -65 -18 -98 -40 l-53 -35 -22 29 -21 29
22 4 c121 25 379 94 452 121 50 19 92 34 94 34 1 1 2 -3 2 -8z m-2181 -127
c97 -20 186 -38 199 -40 l23 -5 -23 -28 -23 -28 -30 22 c-81 61 -141 71 -173
30 -18 -23 -21 -23 -33 -8 -20 24 -100 73 -120 73 -10 0 -25 -8 -35 -17 -15
-15 -18 -16 -22 -3 -7 21 -71 80 -87 80 -8 0 -16 4 -19 9 -3 5 33 -4 81 -20
47 -16 166 -45 262 -65z m2195 81 c8 -22 -4 -105 -22 -140 -23 -47 -43 -65
-73 -65 -21 0 -29 6 -36 27 -9 27 -10 27 -16 -14 -5 -27 -16 -48 -32 -61 -30
-24 -122 -39 -137 -24 -8 8 -19 -2 -40 -34 -15 -24 -34 -47 -42 -50 -28 -11
-130 17 -148 39 -15 19 -18 19 -18 5 -1 -66 -53 -93 -173 -86 -62 3 -79 7 -91
23 -15 19 -15 19 -16 -7 0 -68 -15 -74 -196 -88 -205 -16 -232 -3 -235 108 -1
45 -2 44 -10 -17 -12 -96 -12 -96 -197 -96 -179 1 -208 9 -227 64 -9 28 -13
31 -23 18 -15 -18 -141 -28 -188 -15 -30 8 -66 41 -77 71 -3 8 -9 7 -18 -5 -8
-9 -40 -22 -72 -28 -58 -12 -59 -11 -88 16 -17 16 -32 39 -36 52 -4 17 -9 20
-16 13 -14 -14 -99 -14 -131 0 -14 7 -33 30 -44 58 -15 33 -21 40 -21 24 -1
-19 -7 -23 -31 -23 -36 0 -64 25 -85 77 -20 46 -25 134 -8 140 17 6 82 -55
105 -100 l20 -41 13 31 c7 17 18 34 24 38 15 8 67 -24 110 -69 19 -20 37 -36
41 -36 3 0 11 13 18 30 7 16 22 32 32 35 23 7 87 -24 136 -67 l37 -33 16 25
c36 55 63 72 105 66 46 -8 106 -52 137 -102 l21 -35 29 50 c16 28 35 52 42 52
16 2 106 -2 237 -10 l105 -6 22 -55 c14 -35 22 -47 23 -32 0 12 6 38 14 56 14
34 15 34 98 41 45 3 121 11 167 16 80 10 85 9 108 -13 14 -13 31 -36 39 -51
l15 -28 49 55 c52 56 118 91 151 81 10 -4 34 -24 53 -46 l34 -41 55 41 c29 22
69 46 87 52 31 11 35 10 56 -14 12 -14 24 -31 26 -38 2 -6 31 16 65 50 34 33
69 61 78 61 9 0 23 -16 32 -37 l15 -37 13 31 c16 38 83 113 100 113 7 0 15 -7
19 -15z m-797 -162 c-28 -28 -28 -28 -43 -8 -14 19 -13 20 13 26 54 12 58 10
30 -18z m-921 -4 c3 -6 0 -17 -8 -25 -12 -12 -17 -11 -38 11 l-23 25 31 0 c17
0 34 -5 38 -11z m1464 -314 c-7 -9 -45 -38 -84 -66 l-71 -50 -3 31 c-2 17 3
38 10 47 19 24 88 53 127 53 29 0 32 -2 21 -15z m-1957 -16 c55 -15 77 -41 77
-89 l0 -40 -27 17 c-59 36 -153 107 -153 115 0 11 58 10 103 -3z m1769 -74 c9
-21 9 -29 -3 -40 -16 -16 -174 -85 -194 -85 -13 0 -27 72 -18 95 6 16 44 33
103 44 81 16 99 13 112 -14z m-1548 -5 c81 -12 96 -22 97 -64 0 -17 4 -40 9
-51 8 -18 9 -18 9 5 1 14 8 36 18 49 15 23 19 24 105 17 118 -8 124 -12 132
-87 4 -33 5 -63 2 -66 -9 -9 -203 26 -287 53 -132 41 -209 79 -209 103 0 54 9
57 124 41z m1305 -57 c28 -70 24 -75 -74 -100 -96 -25 -252 -47 -407 -58 l-98
-7 0 70 c0 50 4 73 15 82 23 19 259 27 280 10 9 -7 15 -29 15 -54 0 -22 5 -48
10 -56 7 -11 10 1 10 40 0 30 4 61 8 68 11 16 80 30 163 31 64 1 67 0 78 -26z
m-609 -22 c5 -11 10 -48 10 -82 l0 -62 -137 7 c-196 10 -187 6 -180 79 3 33
11 64 19 68 7 5 72 9 145 9 121 0 133 -2 143 -19z"/>
<path d="M5325 5012 c-94 -34 -256 -36 -355 -4 -77 25 -57 3 26 -27 127 -48
298 -29 389 43 24 19 26 19 -60 -12z"/>
<path d="M6494 4563 c-248 -326 -586 -534 -980 -604 -148 -26 -471 -37 -622
-20 -217 24 -360 64 -547 156 -149 73 -264 156 -409 295 -87 83 -95 89 -65 46
129 -184 342 -363 542 -456 211 -98 362 -130 648 -137 353 -9 595 34 834 147
238 113 494 349 610 561 31 59 28 62 -11 12z"/>
<path d="M5105 3654 c-244 -18 -496 -88 -648 -181 -32 -19 -56 -37 -54 -39 2
-2 64 12 138 31 481 124 838 125 1347 4 68 -16 134 -29 148 -29 14 0 48 12 77
26 56 28 191 133 182 142 -3 3 -13 -2 -22 -11 -31 -27 -166 -87 -213 -93 -39
-5 -74 3 -220 50 -96 32 -224 65 -285 76 -108 18 -352 31 -450 24z"/>
<path d="M8132 7740 c-63 -39 -102 -167 -102 -338 0 -107 15 -144 72 -174 35
-19 59 -23 128 -23 47 0 103 6 125 14 l40 14 -57 13 c-67 16 -145 53 -172 83
-16 18 -20 41 -24 129 -6 135 14 224 57 264 23 21 26 28 14 32 -26 10 -47 7
-81 -14z"/>
<path d="M2091 7611 c-11 -7 -8 -13 13 -26 40 -26 68 -131 70 -259 1 -82 -2
-107 -17 -129 -19 -30 -88 -68 -157 -88 -25 -7 -49 -16 -54 -20 -15 -13 44
-24 129 -24 104 1 180 31 201 81 31 73 10 271 -40 380 -34 74 -101 113 -145
85z"/>
</g>
</svg>
